<svg xmlns="http://www.w3.org/2000/svg" width="76.025" height="62.604" viewBox="0 0 76.025 62.604">
  <g id="Clubhouse_App_Logo" transform="translate(-1.282 -1)">
    <path id="Tracé_18" data-name="Tracé 18" d="M39.662,26.088a84.982,84.982,0,0,0,3.6,9.636,84.3,84.3,0,0,0,6.031,12c2.636,4.3,5.547,9.206,10.335,12.38a21.742,21.742,0,0,0,11.842,3.5,20.683,20.683,0,0,0,13.891-5.493c3.121-2.905,7.161-8.506,7.161-19.433,0-3.766,1.668-7,2.905-9.582a1.4,1.4,0,0,1,.161-.377,9.837,9.837,0,0,0,1.076-3.874,5.767,5.767,0,0,0-.968-3.228,5.34,5.34,0,0,0-4.794-2.475c-4.143,0-7,2.905-8.452,5.87l-.484.968C81.38,25.119,80.789,24.2,80.3,23.4a34.432,34.432,0,0,1-3.121-6.677,45.525,45.525,0,0,1-1.4-5.493c-.915-5.278-2.421-7-4.9-7.645a7.175,7.175,0,0,0-5.547.915A5.407,5.407,0,0,0,60.01,1c-3.444,0-6.569,2.26-6.569,6.085,0,.484.054.968.108,1.56a5.865,5.865,0,0,0-1.4-.161c-3.713,0-6.461,2.583-6.461,6.085a11.484,11.484,0,0,0,.377,2.8,5.848,5.848,0,0,0-.968-.054,6.334,6.334,0,0,0-4.686,2.26C39.232,20.971,38.747,23.124,39.662,26.088Z" transform="translate(-19.363 0)" fill="#1f1f1a"/>
    <path id="Tracé_19" data-name="Tracé 19" d="M46.089,30.978c-.484-1.56-.43-2.744.161-3.5A3.169,3.169,0,0,1,48.617,26.4c1.668-.054,2.314,1.13,3.282,4.2a64.17,64.17,0,0,0,2.475,6.3c.915,1.883,2.206,4.412,2.8,5.278.484.753.915.968,1.4.968A1.346,1.346,0,0,0,60.078,41.8a5.045,5.045,0,0,0-.753-1.776c-.484-.915-1.507-2.744-2.206-4.3C56.365,34,55.5,31.849,54.805,29.907c-.43-1.13-.915-2.744-1.4-4.358a19.677,19.677,0,0,1-1.13-5.116c0-1.722,1.291-2.852,3.228-2.852,1.4,0,2.314.7,2.905,3.228a53.777,53.777,0,0,0,2.583,9.044c.807,1.937,1.991,4.525,2.69,5.816a7.857,7.857,0,0,1,.915,1.668c0,.377-.7.968-1.291,1.776a1.907,1.907,0,0,0-.538,1.184,2.007,2.007,0,0,0,.538,1.076c.323.43.646.861,1.022.861a.675.675,0,0,0,.592-.323,18.562,18.562,0,0,1,5.6-4.74,24.725,24.725,0,0,1,7-2.529c.968-.215,1.238-.43,1.238-.968a1.092,1.092,0,0,0-1.13-1.076,9.267,9.267,0,0,0-1.668.054c-.538.054-.807-.215-1.13-.915a50.651,50.651,0,0,1-3.982-9.9,42.305,42.305,0,0,1-1.184-6.461,2,2,0,0,1,.646-2.152,3.74,3.74,0,0,1,3.121-.646c1.238.323,1.883,1.291,2.529,5.063a46.512,46.512,0,0,0,1.507,5.977,37.687,37.687,0,0,0,3.39,7.269,45.868,45.868,0,0,0,3.067,4.578c-.215.646-.592,1.076-1.829,2.1a13.761,13.761,0,0,0-3.6,4.089,9.235,9.235,0,0,0-1.184,4.143c0,1.022.215,1.238.861,1.238,1.13,0,2.045-.215,2.1-.7a8.932,8.932,0,0,1,1.668-4.632,25.114,25.114,0,0,1,2.69-2.636,7.1,7.1,0,0,0,2.905-4.2,13.591,13.591,0,0,1,1.022-2.583c1.022-1.883,2.852-4.035,5.708-4.035a2.349,2.349,0,0,1,2.152,1.022,2.928,2.928,0,0,1,.377,1.453,8.018,8.018,0,0,1-1.022,2.959c-1.184,2.529-3.121,6.408-3.121,10.873,0,9.744-3.444,14.591-6.139,17.066A17.3,17.3,0,0,1,74.825,66.25,18.633,18.633,0,0,1,64.759,63.29c-4.143-2.744-6.731-7.053-9.367-11.358A82.424,82.424,0,0,1,49.576,40.36C48.3,37.273,47.111,34.26,46.089,30.978Z" transform="translate(-22.723 -5.859)" fill="#f0f5f9"/>
    <path id="Tracé_20" data-name="Tracé 20" d="M74.72,10.462c0-2.045,1.883-2.852,3.444-2.852,1.668,0,2.26.807,2.69,2.529a26.279,26.279,0,0,1,.7,4.2c.215,1.507.968,4.955,1.184,5.816A75.844,75.844,0,0,0,87.1,30.81a27.692,27.692,0,0,0-3.659,1.56c-1.291.7-1.56.7-2.1-.323A45.128,45.128,0,0,1,78.7,26.554a39.8,39.8,0,0,1-1.668-5.224,38.606,38.606,0,0,0-1.56-5.923A25.086,25.086,0,0,1,74.72,10.462Z" transform="translate(-37.517 -3.377)" fill="#f0f5f9"/>
    <path id="Tracé_21" data-name="Tracé 21" d="M23.363,83.385c-1.14.7-7.181,3.869-8.545,4.373-.973.362-2.03.274-2.651-1.565-.763-2.274.308-2.813,1.834-3.4,1.35-.523,6.951-2.548,8.252-2.9.915-.245,1.551.064,1.991,1.164.484,1.208.152,1.692-.88,2.333" transform="translate(-5.431 -40.261)" fill="#1f1f1a"/>
    <path id="Tracé_22" data-name="Tracé 22" d="M12.952,55.5c-1.624.044-8.369-.245-9.91-.4-1.34-.132-1.883-.724-1.736-2.666.157-2.084.968-2.211,2.284-2.084,1.526.147,8.594,1.3,9.719,1.644,1.164.362,1.326.89,1.184,1.908-.181,1.321-.778,1.57-1.541,1.595" transform="translate(0 -25.196)" fill="#1f1f1a"/>
    <path id="Tracé_23" data-name="Tracé 23" d="M16.463,23.125C14.6,22.538,9.087,19.2,7.649,18.336c-1.3-.783-1.467-1.487-.563-3.2.8-1.516,1.692-1.78,3.013-1.1,1.531.8,6.936,5,7.968,5.835,1,.8.861,1.218.338,2.25s-1.013,1.3-1.942,1" transform="translate(-2.674 -6.477)" fill="#1f1f1a"/>
  </g>
</svg>
