<svg xmlns="http://www.w3.org/2000/svg" width="58.758" height="57.314" viewBox="0 0 58.758 57.314">
    <path id="github" d="M29.381.4a29.386,29.386,0,0,0-9.3,57.261c1.475.277,2.007-.632,2.007-1.418,0-.7-.017-2.543-.028-4.993-8.177,1.77-9.9-3.95-9.9-3.95-1.339-3.386-3.27-4.3-3.27-4.3-2.659-1.816.211-1.778.211-1.778a6.144,6.144,0,0,1,4.5,3.021c2.62,4.5,6.875,3.2,8.559,2.439a6.222,6.222,0,0,1,1.856-3.92c-6.523-.736-13.381-3.261-13.381-14.52a11.349,11.349,0,0,1,3.021-7.891,10.479,10.479,0,0,1,.259-7.777s2.459-.784,8.08,3.013a27.651,27.651,0,0,1,14.69,0c5.588-3.8,8.045-3.013,8.045-3.013a10.793,10.793,0,0,1,.3,7.777,11.422,11.422,0,0,1,3,7.891c0,11.284-6.868,13.772-13.4,14.49,1.021.88,1.978,2.688,1.978,5.434,0,3.93-.037,7.1-.037,8.052,0,.764.514,1.682,2.027,1.386A29.343,29.343,0,0,0,29.377.395Z" transform="translate(0 -0.395)" fill="#1e2022" />
</svg>
