<svg xmlns="http://www.w3.org/2000/svg" width="45.295" height="53.173" viewBox="0 0 45.295 53.173">
<path id="podcast" d="M27.648,3a22.633,22.633,0,0,0-9.339,43.257q-.327-2.343-.469-4.707a18.711,18.711,0,1,1,19.615,0q-.141,2.362-.469,4.707A22.632,22.632,0,0,0,27.648,3Zm0,7.877a14.759,14.759,0,0,0-9.266,26.255,8.07,8.07,0,0,1,2.251-3.249,10.831,10.831,0,1,1,14.03,0,8.025,8.025,0,0,1,2.251,3.249,14.759,14.759,0,0,0-9.266-26.255Zm0,7.877a6.893,6.893,0,1,0,6.893,6.893A6.9,6.9,0,0,0,27.648,18.755Zm0,3.939a2.954,2.954,0,1,1-2.954,2.954A2.958,2.958,0,0,1,27.648,22.694Zm0,11.816c-6.221,0-6.893,4.088-6.893,5.847a75.225,75.225,0,0,0,1.635,12.22c.256,1.083,1.276,3.6,5.258,3.6s5-2.513,5.258-3.6a75.166,75.166,0,0,0,1.635-12.22C34.54,38.6,33.869,34.51,27.648,34.51Zm0,3.939c2.954,0,2.954,1.1,2.954,1.908a72.165,72.165,0,0,1-1.53,11.32c-.049.207-.132.557-1.424.557s-1.375-.349-1.424-.553a72.291,72.291,0,0,1-1.53-11.324C24.694,39.549,24.694,38.448,27.648,38.448Z" transform="translate(-5 -3)" fill="#1e2022"/>
</svg>
