<svg xmlns="http://www.w3.org/2000/svg" xmlns:xlink="http://www.w3.org/1999/xlink" width="56" height="53" viewBox="0 0 56 53">
  <defs>
    <clipPath id="clip-path">
      <rect id="Rectangle_6" data-name="Rectangle 6" width="56" height="53" transform="translate(33.133 -0.082)" fill="#1e2022"/>
    </clipPath>
  </defs>
  <g id="Groupe_de_masques_1" data-name="Groupe de masques 1" transform="translate(-33.133 0.082)" clip-path="url(#clip-path)">
    <path id="spotify" d="M158.875,133.333c-14.109,0-25.541,11.87-25.541,26.52s11.432,26.52,25.541,26.52,25.541-11.87,25.541-26.52S172.984,133.333,158.875,133.333Zm0,4.42A20.807,20.807,0,0,1,173.95,144.2a22.836,22.836,0,0,1,0,31.307,20.849,20.849,0,0,1-30.151,0,22.836,22.836,0,0,1,0-31.307A20.807,20.807,0,0,1,158.875,137.753Zm-3.393,10.5a35.256,35.256,0,0,0-11.174,1.521,2.288,2.288,0,0,0,.532,4.486c.541,0,.907-.206,1.264-.206a37.844,37.844,0,0,1,9.378-1.105c6.3,0,12.771,1.459,17.093,4.075.541.19.724.413,1.264.413a2.4,2.4,0,0,0,2.329-2.279,2.332,2.332,0,0,0-1.264-2.21C169.5,149.769,162.325,148.251,155.482,148.251Zm-.6,8.219a31.947,31.947,0,0,0-9.18,1.313,2,2,0,0,0-1.4,2.071,1.835,1.835,0,0,0,1.8,1.865,2.537,2.537,0,0,0,1.064-.208,29.2,29.2,0,0,1,7.584-.9,27.672,27.672,0,0,1,14.9,3.936,2.5,2.5,0,0,0,1.262.345,1.9,1.9,0,0,0,1.8-2.071,2.035,2.035,0,0,0-1.064-1.865A31.316,31.316,0,0,0,154.884,156.47Zm.6,8.08a34.68,34.68,0,0,0-8.846,1.105,1.6,1.6,0,0,0-1.264,1.658,1.49,1.49,0,0,0,1.464,1.52c.183,0,.707-.208,1.064-.208a32,32,0,0,1,7.384-.9,23.263,23.263,0,0,1,12.038,3.178,2.625,2.625,0,0,0,1.13.345,1.714,1.714,0,0,0,1.6-1.311,1.733,1.733,0,0,0-.932-1.658A25.788,25.788,0,0,0,155.482,164.55Z" transform="translate(-97.518 -133.358)" fill="#1e2022"/>
  </g>
</svg>
