<svg xmlns="http://www.w3.org/2000/svg" width="66.507" height="48.591" viewBox="0 0 66.507 48.591">
    <g id="youtube" transform="translate(3.5 3.503)">
        <path id="Tracé_2" data-name="Tracé 2" d="M62.185,16.526A7.447,7.447,0,0,0,56.93,11.27c-3.442-1.33-36.793-1.982-46.469.037a7.447,7.447,0,0,0-5.256,5.257c-1.555,6.818-1.672,21.558.039,28.529A7.447,7.447,0,0,0,10.5,50.349c6.818,1.569,39.231,1.79,46.469,0a7.447,7.447,0,0,0,5.256-5.256C63.881,37.666,64,23.839,62.185,16.526Z" transform="translate(-4 -10.022)" fill="none" stroke="#f0f5f9" stroke-linecap="round" stroke-linejoin="round" stroke-width="7" />
        <path id="Tracé_3" data-name="Tracé 3" d="M35.51,26.83,20.12,18V35.656Z" transform="translate(5.008 -6.036)" fill="none" stroke="#f0f5f9" stroke-linecap="round" stroke-linejoin="round" stroke-width="4" />
    </g>
</svg>
