<svg xmlns="http://www.w3.org/2000/svg" width="100" height="100" viewBox="0 0 100 100">
  <g id="Contact" transform="translate(271.32 835.711)">
    <g id="Tracé_2" data-name="Tracé 2" transform="translate(-271.32 -835.711)" fill="#f0f5f9">
      <path d="M 50 99 C 43.38460159301758 99 36.96761322021484 97.70458984375 30.92729377746582 95.14974975585938 C 25.09253311157227 92.68185424804688 19.85215950012207 89.14862823486328 15.35177326202393 84.64822387695312 C 10.85137367248535 80.14784240722656 7.318146705627441 74.90746307373047 4.850253105163574 69.07270812988281 C 2.295413255691528 63.03238677978516 1 56.61539840698242 1 50 C 1 43.38460159301758 2.295413255691528 36.96761322021484 4.850253105163574 30.92729377746582 C 7.318146705627441 25.09253311157227 10.85137367248535 19.85215950012207 15.35177326202393 15.35177326202393 C 19.85215950012207 10.85137367248535 25.09253311157227 7.318146705627441 30.92729377746582 4.850253105163574 C 36.96761322021484 2.295413255691528 43.38460159301758 1 50 1 C 56.61539840698242 1 63.03238677978516 2.295413255691528 69.07270812988281 4.850253105163574 C 74.90746307373047 7.318146705627441 80.14784240722656 10.85137367248535 84.64822387695312 15.35177326202393 C 89.14862823486328 19.85215950012207 92.68185424804688 25.09253311157227 95.14974975585938 30.92729377746582 C 97.70458984375 36.96761322021484 99 43.38460159301758 99 50 C 99 56.61539840698242 97.70458984375 63.03238677978516 95.14974975585938 69.07270812988281 C 92.68185424804688 74.90746307373047 89.14862823486328 80.14784240722656 84.64822387695312 84.64822387695312 C 80.14784240722656 89.14862823486328 74.90746307373047 92.68185424804688 69.07270812988281 95.14974975585938 C 63.03238677978516 97.70458984375 56.61539840698242 99 50 99 Z" stroke="none"/>
      <path d="M 50 2 C 43.51915740966797 2 37.23324203491211 3.268829345703125 31.31684112548828 5.771255493164062 C 25.60127258300781 8.188743591308594 20.46775817871094 11.64998626708984 16.05886840820312 16.05886840820312 C 11.64998626708984 20.46775817871094 8.188743591308594 25.60127258300781 5.771255493164062 31.31684112548828 C 3.268829345703125 37.23324203491211 2 43.51915740966797 2 50 C 2 56.48084259033203 3.268829345703125 62.76675796508789 5.771255493164062 68.68314361572266 C 8.188743591308594 74.39871215820312 11.64998626708984 79.53224182128906 16.05886840820312 83.94113159179688 C 20.46775817871094 88.34999847412109 25.60127258300781 91.81125640869141 31.31684112548828 94.22874450683594 C 37.23324203491211 96.73117065429688 43.51915740966797 98 50 98 C 56.48084259033203 98 62.76675796508789 96.73117065429688 68.68314361572266 94.22874450683594 C 74.39871215820312 91.81125640869141 79.53224182128906 88.34999847412109 83.94113159179688 83.94113159179688 C 88.34999847412109 79.53224182128906 91.81125640869141 74.39871215820312 94.22874450683594 68.68314361572266 C 96.73117065429688 62.76675796508789 98 56.48084259033203 98 50 C 98 43.51915740966797 96.73117065429688 37.23324203491211 94.22874450683594 31.31684112548828 C 91.81125640869141 25.60127258300781 88.34999847412109 20.46775817871094 83.94113159179688 16.05886840820312 C 79.53224182128906 11.64998626708984 74.39871215820312 8.188743591308594 68.68314361572266 5.771255493164062 C 62.76675796508789 3.268829345703125 56.48084259033203 2 50 2 M 50 0 C 77.61422729492188 0 100 22.38575744628906 100 50 C 100 77.61422729492188 77.61422729492188 100 50 100 C 22.38575744628906 100 0 77.61422729492188 0 50 C 0 22.38575744628906 22.38575744628906 0 50 0 Z" stroke="none" fill="#1e2022"/>
    </g>
    <path id="Tracé_24" data-name="Tracé 24" d="M48.169,35a2.692,2.692,0,0,1-2.692,2.692H40.092A2.692,2.692,0,0,1,37.4,35h0a2.692,2.692,0,0,1,2.692-2.692h5.385A2.692,2.692,0,0,1,48.169,35Zm0-17.231a2.692,2.692,0,0,0-2.692-2.692H40.092A2.692,2.692,0,0,0,37.4,17.769h0a2.692,2.692,0,0,0,2.692,2.692h5.385a2.692,2.692,0,0,0,2.692-2.692Zm0,34.462a2.692,2.692,0,0,0-2.692-2.692H40.092A2.692,2.692,0,0,0,37.4,52.231h0a2.692,2.692,0,0,0,2.692,2.692h5.385a2.692,2.692,0,0,0,2.692-2.692ZM95.554,8.615V61.385A8.616,8.616,0,0,1,86.939,70H49.246a8.616,8.616,0,0,1-8.615-8.615V57.077h4.846a4.846,4.846,0,0,0,0-9.693H40.631V39.846h4.846a4.846,4.846,0,1,0,0-9.692H40.631V22.615h4.846a4.846,4.846,0,1,0,0-9.692H40.631V8.615A8.616,8.616,0,0,1,49.246,0H86.938A8.616,8.616,0,0,1,95.554,8.615ZM61.4,25.538a8.307,8.307,0,1,0,8.307-8.308A8.308,8.308,0,0,0,61.4,25.538Zm21.23,20.307a9.231,9.231,0,0,0-9.23-9.23H66.016a9.232,9.232,0,0,0-9.231,9.23v3.693H82.631Z" transform="translate(-289.797 -820.711)" fill="#1e2022"/>
  </g>
</svg>
