<svg xmlns="http://www.w3.org/2000/svg" width="100" height="100" viewBox="0 0 100 100">
    <g id="Contact" transform="translate(271.32 835.711)">
        <path id="Tracé_2" data-name="Tracé 2" d="M50,0A50,50,0,1,1,0,50,50,50,0,0,1,50,0Z" transform="translate(-271.32 -835.711)" fill="#f0f5f9" />
        <path id="Tracé_24" data-name="Tracé 24" d="M48.169,35a2.692,2.692,0,0,1-2.692,2.692H40.092A2.692,2.692,0,0,1,37.4,35h0a2.692,2.692,0,0,1,2.692-2.692h5.385A2.692,2.692,0,0,1,48.169,35Zm0-17.231a2.692,2.692,0,0,0-2.692-2.692H40.092A2.692,2.692,0,0,0,37.4,17.769h0a2.692,2.692,0,0,0,2.692,2.692h5.385a2.692,2.692,0,0,0,2.692-2.692Zm0,34.462a2.692,2.692,0,0,0-2.692-2.692H40.092A2.692,2.692,0,0,0,37.4,52.231h0a2.692,2.692,0,0,0,2.692,2.692h5.385a2.692,2.692,0,0,0,2.692-2.692ZM95.554,8.615V61.385A8.616,8.616,0,0,1,86.939,70H49.246a8.616,8.616,0,0,1-8.615-8.615V57.077h4.846a4.846,4.846,0,0,0,0-9.693H40.631V39.846h4.846a4.846,4.846,0,1,0,0-9.692H40.631V22.615h4.846a4.846,4.846,0,1,0,0-9.692H40.631V8.615A8.616,8.616,0,0,1,49.246,0H86.938A8.616,8.616,0,0,1,95.554,8.615ZM61.4,25.538a8.307,8.307,0,1,0,8.307-8.308A8.308,8.308,0,0,0,61.4,25.538Zm21.23,20.307a9.231,9.231,0,0,0-9.23-9.23H66.016a9.232,9.232,0,0,0-9.231,9.23v3.693H82.631Z" transform="translate(-289.797 -820.711)" fill="#1e2022" />
    </g>
</svg>
