<svg xmlns="http://www.w3.org/2000/svg" width="100" height="100" viewBox="0 0 100 100">
    <g id="Partager" transform="translate(-600 -344)">
        <path id="Tracé_3" data-name="Tracé 3" d="M50,0A50,50,0,1,1,0,50,50,50,0,0,1,50,0Z" transform="translate(600 344)" fill="#1e2022" />
        <path id="_-share_90177" data-name="-share_90177" d="M49.988,46.106a9.122,9.122,0,0,0-6.14,2.412l-22.335-13a10.254,10.254,0,0,0,.282-2.193,10.254,10.254,0,0,0-.282-2.193L43.6,18.258A9.377,9.377,0,1,0,40.59,11.4a10.255,10.255,0,0,0,.282,2.193L18.788,26.465a9.4,9.4,0,1,0,0,13.72l22.3,13.031a8.837,8.837,0,0,0-.251,2.036,9.147,9.147,0,1,0,9.147-9.147Z" transform="translate(613.374 360.8)" fill="#f0f5f9" />
    </g>
</svg>
