<svg xmlns="http://www.w3.org/2000/svg" xmlns:xlink="http://www.w3.org/1999/xlink" width="1em" height="1em" preserveAspectRatio="xMidYMid meet" viewBox="0 0 48 48" style="-ms-transform: rotate(360deg); -webkit-transform: rotate(360deg); transform: rotate(360deg);"><path fill="none" stroke="currentColor" stroke-linecap="round" stroke-linejoin="round" d="M43.112 14.394a5.006 5.006 0 0 0-3.533-3.533c-2.314-.894-24.732-1.332-31.236.025A5.006 5.006 0 0 0 4.81 14.42c-1.045 4.583-1.124 14.491.026 19.177a5.006 5.006 0 0 0 3.533 3.533c4.583 1.055 26.371 1.203 31.236 0a5.006 5.006 0 0 0 3.533-3.533c1.114-4.993 1.193-14.287-.026-19.203Z"/><path fill="none" stroke="currentColor" stroke-linecap="round" stroke-linejoin="round" d="M30.567 23.995L20.12 18.004v11.982Z"/></svg>