<?xml version="1.0" standalone="no"?>
<!DOCTYPE svg PUBLIC "-//W3C//DTD SVG 20010904//EN"
 "http://www.w3.org/TR/2001/REC-SVG-20010904/DTD/svg10.dtd">
<svg version="1.0" xmlns="http://www.w3.org/2000/svg"
 width="910.000000pt" height="910.000000pt" viewBox="0 0 910.000000 910.000000"
 preserveAspectRatio="xMidYMid meet">
<metadata>
Created by potrace 1.14, written by Peter Selinger 2001-2017
</metadata>
<g transform="translate(0.000000,910.000000) scale(0.100000,-0.100000)"
fill="#000000" stroke="none">
<path d="M0 8827 c0 -89 3 -106 17 -111 9 -4 61 -2 116 4 81 9 114 18 169 46
65 33 79 36 210 45 78 5 144 11 146 14 12 11 -12 18 -100 29 -51 6 -98 14
-103 18 -21 13 -163 37 -260 43 -55 3 -121 8 -147 11 l-48 6 0 -105z"/>
<path d="M974 8796 c12 -10 40 -16 70 -16 28 0 98 -9 156 -19 188 -35 234 -40
277 -34 44 6 182 -21 218 -43 22 -13 123 -25 230 -27 59 -2 79 3 129 28 33 17
59 34 59 39 -3 18 -150 55 -204 51 -28 -2 -53 -6 -56 -8 -2 -3 -20 -1 -40 3
-19 5 -103 10 -187 11 -83 1 -167 6 -186 11 -19 4 -136 10 -260 13 -204 6
-223 5 -206 -9z"/>
<path d="M2368 8723 c-43 -2 -78 -7 -78 -11 0 -4 37 -22 83 -40 70 -28 93 -32
162 -31 92 1 151 -7 182 -27 58 -36 225 -74 327 -74 45 0 80 7 127 27 59 25
75 27 209 28 80 1 198 5 263 9 84 6 139 5 192 -4 80 -14 126 -8 91 12 -29 16
-86 27 -86 16 0 -11 -89 -8 -96 4 -14 23 -73 36 -120 26 -88 -16 -282 -7 -429
22 -100 20 -253 32 -415 35 -91 1 -203 4 -250 7 -47 3 -120 3 -162 1z"/>
<path d="M4275 8560 c8 -13 35 -13 55 0 11 7 5 10 -23 10 -23 0 -36 -4 -32
-10z"/>
<path d="M13 8554 c-8 -4 -13 -26 -13 -60 0 -51 2 -54 33 -67 17 -8 43 -25 57
-39 43 -42 127 -68 137 -41 3 7 12 13 20 13 7 0 26 12 41 26 15 14 39 33 55
42 36 22 34 42 -6 68 -65 41 -120 57 -217 60 -52 2 -101 1 -107 -2z"/>
<path d="M1678 8370 c-15 -9 -15 -13 7 -36 16 -17 41 -28 82 -36 53 -10 63 -9
101 11 49 25 52 33 16 50 -36 16 -184 24 -206 11z"/>
<path d="M2800 8340 c-8 -5 -28 -15 -45 -22 -43 -19 -43 -47 2 -91 49 -49 71
-54 167 -33 45 10 133 21 197 25 64 5 121 11 127 15 37 23 -24 60 -113 69 -95
11 -199 29 -217 38 -21 11 -98 11 -118 -1z"/>
<path d="M7403 8303 c9 -2 25 -2 35 0 9 3 1 5 -18 5 -19 0 -27 -2 -17 -5z"/>
<path d="M7630 8291 c0 -18 124 -42 185 -35 33 4 71 7 85 6 19 0 21 2 9 9 -9
4 -65 13 -125 19 -132 12 -154 12 -154 1z"/>
<path d="M8495 8209 c4 -6 10 -8 13 -5 3 3 13 -1 22 -9 19 -17 78 -22 130 -10
l35 8 -30 13 c-37 16 -179 19 -170 3z"/>
<path d="M8935 8190 c-35 -3 -54 -9 -45 -13 21 -10 149 -48 183 -54 26 -5 27
-4 27 36 l0 41 -52 -2 c-29 -1 -80 -4 -113 -8z"/>
<path d="M5013 7105 c-94 -18 -185 -63 -268 -134 -37 -31 -82 -68 -101 -83
-164 -126 -295 -243 -350 -312 -35 -43 -64 -82 -64 -86 0 -4 11 -13 25 -20 14
-7 25 -19 25 -26 0 -20 -119 -128 -150 -137 -28 -7 -105 -99 -93 -111 11 -11
48 -6 67 9 27 20 91 19 123 -2 15 -10 59 -67 98 -128 80 -123 106 -147 145
-133 30 11 159 3 174 -12 5 -5 26 -10 45 -10 58 0 129 -22 224 -71 22 -10 43
-19 48 -19 4 0 24 -17 44 -37 20 -21 44 -47 55 -58 11 -12 20 -30 20 -41 0
-11 5 -25 11 -31 9 -9 8 -18 -5 -37 -9 -14 -16 -32 -16 -40 0 -8 -6 -17 -12
-19 -10 -4 -10 -6 0 -6 7 -1 32 9 55 20 37 19 53 21 151 16 110 -5 111 -5 153
24 24 17 47 39 53 49 15 28 59 48 121 55 139 15 138 15 207 68 67 52 67 52
137 50 51 -1 93 -10 155 -33 100 -37 141 -66 164 -114 9 -20 26 -41 38 -47 12
-6 44 -33 72 -60 167 -158 239 -231 287 -290 66 -80 109 -117 176 -153 57 -31
73 -28 73 13 0 66 -33 123 -136 232 l-62 65 24 84 c77 266 68 501 -24 665 -16
28 -53 88 -82 135 -30 47 -69 114 -88 150 -24 46 -68 99 -153 185 -66 67 -126
131 -135 143 -30 43 -114 102 -145 102 -17 0 -48 9 -70 21 -39 19 -166 56
-359 105 -94 23 -396 64 -520 70 -36 1 -98 -3 -137 -11z m695 -202 c2 -7 -5
-13 -15 -13 -10 0 -43 -16 -73 -35 -74 -48 -150 -48 -150 0 0 23 17 35 51 35
10 0 19 4 19 9 0 14 28 19 99 18 42 -1 66 -6 69 -14z m136 -19 c9 -3 16 -12
16 -20 0 -8 10 -14 25 -14 17 0 25 -6 26 -17 0 -11 3 -13 6 -5 6 16 33 16 33
-1 0 -7 -6 -19 -12 -27 -7 -8 -2 -6 12 3 42 29 52 31 65 14 9 -12 14 -14 23
-5 9 9 15 9 24 0 9 -9 6 -18 -15 -40 -22 -22 -24 -31 -14 -41 16 -16 -16 -41
-52 -41 -27 1 -126 32 -138 44 -3 3 -17 6 -29 6 -13 0 -26 4 -29 10 -3 5 -24
9 -46 8 -31 -1 -38 -5 -34 -17 3 -12 -17 -31 -73 -68 -42 -29 -129 -90 -192
-137 -115 -86 -151 -101 -189 -77 -17 11 -3 26 108 110 45 35 81 65 78 67 -2
2 -26 -3 -53 -11 -52 -16 -84 -12 -84 9 0 21 20 33 85 51 33 9 95 28 138 43
72 25 81 31 110 75 32 50 58 63 106 54 20 -4 32 0 44 14 17 20 34 23 61 13z
m300 -110 c24 -9 108 -123 100 -136 -4 -6 -8 -24 -8 -39 -1 -22 2 -25 16 -18
9 5 19 14 21 21 4 10 8 9 16 -2 8 -11 4 -21 -16 -42 -28 -29 -22 -39 7 -13 15
13 19 12 39 -9 19 -20 21 -28 12 -45 -15 -26 -7 -27 19 -1 26 26 40 25 41 -2
7 -120 7 -118 -12 -118 -22 0 -109 78 -109 97 0 8 -4 12 -10 8 -5 -3 -28 12
-50 34 -34 33 -40 45 -34 63 6 21 5 21 -10 9 -12 -10 -20 -11 -28 -3 -8 8 -1
20 28 46 21 20 35 36 31 36 -4 0 -20 -11 -35 -25 -30 -28 -63 -32 -86 -10 -34
35 -27 85 13 85 13 0 16 7 13 35 -4 36 6 43 42 29z m-251 -73 c59 -23 82 -81
57 -147 -17 -45 -123 -139 -199 -177 -96 -48 -165 -56 -226 -27 -62 30 -76 60
-50 108 25 46 68 72 92 56 27 -17 27 -39 -2 -68 -32 -32 -25 -46 20 -46 33 0
105 27 105 39 0 3 -17 13 -38 22 -44 18 -67 56 -58 93 13 53 95 125 166 147
36 11 105 11 133 0z m258 -156 c16 -9 39 -30 49 -48 41 -67 16 -153 -65 -225
-66 -58 -128 -85 -208 -90 -61 -4 -71 -2 -107 23 -63 44 -62 111 2 158 23 17
32 19 53 9 32 -15 32 -33 0 -60 -32 -28 -33 -58 -2 -66 20 -5 42 0 100 20 23
8 22 21 -3 29 -31 10 -70 68 -70 104 0 25 11 44 48 82 68 72 142 95 203 64z
m-998 -87 c12 -7 23 -14 25 -15 2 -1 -1 -11 -8 -22 -13 -24 -38 -28 -46 -6 -4
8 -10 12 -15 9 -5 -3 -26 0 -47 7 l-37 13 45 12 c59 16 57 16 83 2z m101 -24
c24 -9 19 -24 -8 -24 -39 0 -39 -17 -1 -24 21 -4 35 -13 35 -21 0 -8 -3 -15
-7 -15 -16 0 -73 25 -73 32 0 4 -7 8 -15 8 -22 0 -18 17 7 34 24 17 38 19 62
10z m86 -88 c0 -8 -4 -17 -8 -20 -13 -8 -35 11 -28 23 10 16 36 14 36 -3z
m1054 -36 c14 -17 28 -46 32 -66 23 -123 -165 -292 -281 -254 -41 13 -85 66
-85 101 1 44 36 104 97 159 72 67 114 89 170 90 34 0 46 -5 67 -30z m-874 -1
c0 -7 -8 -18 -17 -26 -16 -13 -16 -13 4 -4 33 16 83 14 90 -5 8 -23 -14 -64
-35 -64 -28 0 -34 11 -16 31 15 17 15 18 -14 7 -25 -10 -37 -8 -77 11 -51 24
-51 30 -2 48 42 15 67 16 67 2z m253 -108 c9 -9 -69 -61 -90 -61 -10 0 -14 6
-10 20 5 21 -18 30 -25 10 -2 -7 -10 -6 -22 3 -17 12 -17 14 -2 30 14 13 29
15 79 11 34 -4 65 -10 70 -13z m24 -67 c-30 -25 -72 -33 -65 -11 8 23 71 58
82 47 8 -8 3 -18 -17 -36z m48 -42 c7 -15 16 -21 28 -18 9 2 31 -2 47 -11 25
-12 28 -17 20 -34 -13 -23 -38 -25 -46 -4 -4 8 -14 15 -23 15 -9 0 -27 9 -41
20 -14 11 -30 20 -37 20 -19 0 -27 21 -12 31 23 15 53 6 64 -19z m151 -78 c-3
-9 -6 -22 -6 -30 0 -18 -11 -18 -35 0 -16 12 -17 16 -6 30 18 21 55 22 47 0z
m64 -51 c-1 -19 -18 -33 -33 -27 -18 6 -21 16 -10 27 9 9 43 9 43 0z m187
-104 c2 -8 -1 -21 -6 -29 -9 -12 -14 -12 -43 1 l-33 16 30 16 c34 18 49 17 52
-4z"/>
<path d="M5518 6853 c6 -2 18 -2 25 0 6 3 1 5 -13 5 -14 0 -19 -2 -12 -5z"/>
<path d="M5805 6810 c-3 -5 -1 -10 4 -10 6 0 11 5 11 10 0 6 -2 10 -4 10 -3 0
-8 -4 -11 -10z"/>
<path d="M5989 6783 c-13 -16 -12 -17 4 -4 9 7 17 15 17 17 0 8 -8 3 -21 -13z"/>
<path d="M6130 6740 c0 -5 5 -10 11 -10 5 0 7 5 4 10 -3 6 -8 10 -11 10 -2 0
-4 -4 -4 -10z"/>
<path d="M6143 6703 c-15 -3 -20 -9 -16 -20 5 -13 1 -15 -20 -9 -29 7 -36 -4
-14 -22 10 -9 21 -6 45 11 29 20 50 49 34 46 -4 -1 -17 -4 -29 -6z"/>
<path d="M5784 6624 c-39 -19 -104 -78 -104 -93 0 -36 107 -22 155 20 19 17
37 40 41 51 12 38 -37 50 -92 22z"/>
<path d="M6058 6460 c-38 -21 -78 -64 -78 -85 0 -16 22 -25 60 -25 49 0 78 18
99 59 19 36 19 41 5 55 -20 21 -41 20 -86 -4z"/>
<path d="M6306 6255 c-89 -46 -182 -143 -174 -182 4 -24 48 -28 87 -9 45 24
139 119 147 150 13 53 -8 68 -60 41z"/>
<path d="M3744 6128 c-3 -5 -14 -8 -25 -8 -12 0 -19 -7 -19 -18 0 -21 -19 -42
-38 -42 -27 0 -46 -32 -48 -83 -1 -40 -6 -54 -25 -68 -20 -16 -21 -19 -6 -19
10 0 30 6 45 14 15 7 43 17 62 21 19 4 49 17 66 29 57 39 131 111 139 135 5
17 4 21 -4 16 -18 -10 -61 3 -61 19 0 10 -12 14 -41 13 -22 -1 -43 -5 -45 -9z"/>
<path d="M4135 5925 c-10 -53 -26 -82 -67 -125 -18 -19 -46 -52 -62 -73 -16
-20 -37 -37 -46 -37 -9 0 -26 -10 -37 -22 -22 -25 -61 -58 -68 -58 -2 0 -26
-13 -52 -28 -26 -15 -64 -34 -83 -42 -19 -7 -49 -23 -65 -36 -36 -25 -42 -65
-24 -149 11 -49 63 -145 79 -145 4 0 15 16 25 35 15 32 86 126 124 165 30 31
96 80 108 80 7 0 14 -22 18 -52 5 -44 1 -70 -25 -148 -40 -120 -59 -209 -53
-246 7 -36 44 -87 101 -139 24 -22 50 -52 58 -67 8 -15 38 -43 66 -62 71 -48
138 -110 138 -127 -1 -27 -27 -48 -83 -69 -67 -25 -72 -42 -33 -118 36 -71 44
-75 118 -63 90 16 87 14 108 48 23 39 74 77 123 93 24 7 43 22 52 40 27 53
243 200 293 200 45 0 62 -17 62 -63 0 -23 -7 -55 -16 -72 -9 -16 -22 -50 -30
-75 -8 -25 -19 -54 -24 -65 -5 -11 -11 -49 -13 -86 -2 -36 -11 -76 -18 -90 -8
-13 -14 -25 -14 -25 0 -1 -11 -5 -24 -9 -15 -5 -21 -4 -17 3 10 17 -11 23 -24
7 -10 -12 -10 -18 -1 -29 13 -15 -1 -32 -18 -22 -10 7 -71 -22 -71 -34 0 -4
-14 -13 -31 -19 -24 -8 -35 -7 -53 4 -12 8 -26 12 -29 9 -4 -4 -9 2 -13 12
-14 45 -32 69 -73 100 -50 39 -65 42 -56 14 4 -13 1 -22 -9 -26 -9 -3 -13 -10
-10 -15 3 -5 2 -9 -3 -10 -4 0 -18 -2 -30 -5 -13 -2 -23 1 -23 6 0 6 -7 10
-15 10 -8 0 -15 -2 -15 -5 0 -16 56 -148 94 -223 24 -48 59 -121 76 -162 17
-41 35 -79 39 -83 5 -5 22 16 39 45 38 67 98 128 187 188 39 26 78 56 87 67
10 10 50 39 90 64 40 24 98 69 129 99 51 51 56 61 66 119 9 58 8 68 -23 154
-56 159 -111 265 -194 371 -43 56 -91 115 -107 132 -19 20 -27 39 -25 56 2 19
-2 28 -17 33 -12 3 -21 11 -21 16 0 5 -5 9 -10 9 -12 0 -130 121 -130 133 0 4
-6 7 -13 7 -8 0 -25 16 -40 36 -14 20 -36 41 -49 48 -16 8 -24 22 -26 46 -2
27 -11 40 -38 58 -19 12 -55 53 -80 90 -24 37 -51 77 -60 89 -9 12 -17 28 -18
35 -1 7 -7 23 -14 35 -7 12 -12 30 -12 41 0 11 -7 25 -15 32 -8 7 -15 18 -15
24 0 6 -9 34 -19 61 l-19 50 -7 -40z m92 -239 c21 -28 45 -59 54 -69 33 -36
92 -128 86 -134 -9 -8 -236 103 -264 130 -33 29 -29 54 16 98 47 47 58 45 108
-25z m-221 -143 c-8 -15 -15 -25 -16 -21 0 12 23 58 27 54 3 -2 -2 -17 -11
-33z m241 -115 c22 -9 24 -12 11 -15 -21 -5 -21 -8 -8 -33 17 -31 2 -65 -36
-83 -20 -10 -34 -24 -34 -34 1 -32 46 -98 68 -101 13 -2 24 -13 28 -28 3 -13
10 -24 14 -24 4 0 5 -12 2 -26 -4 -22 -8 -25 -30 -19 -22 5 -24 4 -13 -9 8 -9
19 -16 25 -16 17 -1 48 -48 36 -55 -19 -12 -10 -30 28 -54 20 -14 51 -37 67
-51 21 -19 55 -33 110 -45 70 -16 146 -43 121 -45 -5 0 -3 -7 4 -15 10 -12 10
-19 1 -28 -9 -9 -14 -9 -22 3 -9 13 -10 13 -6 -1 5 -16 -30 -37 -90 -54 -81
-23 -351 115 -487 248 -54 53 -65 70 -71 107 -18 127 133 390 224 390 17 0 42
-5 58 -12z m130 -72 c0 -7 -12 -12 -26 -13 -14 -1 -20 1 -13 4 19 8 14 23 -8
23 -20 0 -26 11 -14 23 9 9 61 -23 61 -37z m0 -32 c-3 -3 -12 -4 -19 -1 -8 3
-5 6 6 6 11 1 17 -2 13 -5z"/>
<path d="M4260 4810 c0 -5 5 -10 11 -10 5 0 7 5 4 10 -3 6 -8 10 -11 10 -2 0
-4 -4 -4 -10z"/>
<path d="M4422 4784 c-7 -12 -22 -18 -45 -18 -30 0 -33 -2 -19 -12 26 -17 114
-43 137 -39 53 8 84 18 79 26 -3 5 -14 4 -25 -2 -12 -6 -33 -7 -52 -3 -18 4
-38 7 -46 5 -7 -1 -10 2 -7 7 3 6 0 13 -6 15 -8 3 -5 6 5 6 10 1 17 6 15 13
-7 19 -26 20 -36 2z"/>
<path d="M4598 4773 c7 -3 16 -2 19 1 4 3 -2 6 -13 5 -11 0 -14 -3 -6 -6z"/>
<path d="M775 5708 c-39 -40 -79 -89 -89 -108 -11 -19 -30 -48 -43 -63 -13
-16 -23 -35 -23 -43 0 -8 -4 -14 -9 -14 -6 0 -21 -23 -35 -51 -14 -28 -33 -60
-41 -72 -8 -12 -15 -29 -15 -38 0 -9 -8 -24 -19 -33 -10 -9 -21 -29 -24 -44
-3 -15 -15 -37 -26 -49 -12 -12 -21 -25 -21 -29 0 -3 -9 -17 -20 -31 -11 -14
-22 -41 -26 -62 -8 -47 -53 -141 -68 -141 -6 0 -17 -9 -24 -21 -12 -18 -19
-20 -60 -14 -26 4 -68 20 -94 37 -47 29 -74 31 -105 6 -7 -6 -15 -3 -22 9 -7
13 -10 -295 -10 -1037 l-1 -1055 63 -46 c34 -25 148 -106 252 -179 105 -74
222 -156 262 -184 39 -28 125 -88 190 -133 277 -192 276 -190 293 -483 8 -153
8 -218 0 -255 -15 -67 -37 -192 -61 -350 -22 -143 -31 -386 -27 -770 2 -126 3
-281 2 -342 l0 -113 2901 0 2902 0 7 243 c8 290 34 800 42 842 27 139 49 238
77 345 38 148 43 152 201 201 56 17 138 47 183 65 48 20 135 44 210 58 139 25
177 41 295 121 98 67 174 97 339 134 217 48 355 89 428 125 37 19 103 43 147
54 104 26 249 78 327 116 l62 31 3 972 2 971 -42 22 c-24 12 -45 25 -48 29 -3
4 -24 15 -48 25 -27 12 -44 27 -48 42 -4 15 -22 29 -54 43 -36 16 -54 30 -66
56 -9 19 -20 35 -24 35 -5 0 -21 25 -36 55 -30 58 -37 63 -59 43 -8 -7 -20
-18 -27 -24 -19 -15 -115 -2 -158 21 -19 10 -57 20 -83 21 -27 1 -56 9 -65 17
-10 8 -23 12 -30 10 -7 -3 -19 2 -25 10 -15 18 -64 30 -71 18 -7 -11 -48 -2
-57 12 -4 5 -19 10 -35 11 -16 0 -63 18 -104 38 -90 44 -260 118 -272 118 -13
0 -9 -20 5 -20 46 -1 274 -128 485 -271 23 -16 47 -29 51 -29 5 0 11 -3 13 -7
2 -5 26 -24 53 -43 28 -19 56 -39 62 -45 7 -5 25 -19 39 -30 56 -42 126 -110
140 -136 7 -15 19 -33 26 -41 44 -47 50 -113 16 -161 -21 -29 -21 -30 -2 -23
10 5 37 13 59 19 22 5 49 16 60 24 24 16 49 17 39 1 -5 -7 -2 -9 7 -6 11 4 15
-1 15 -17 0 -13 -3 -22 -7 -19 -4 2 -13 -4 -20 -13 -12 -15 -12 -16 6 -9 11 4
16 4 12 0 -4 -4 1 -16 10 -27 18 -20 18 -20 -12 -2 l-30 19 30 -34 c17 -18 24
-30 18 -26 -14 8 -18 -6 -6 -18 14 -13 11 -38 -5 -54 -18 -18 -52 -17 -64 1
-3 6 -15 11 -25 12 -10 0 -25 5 -33 10 -19 12 -40 15 -39 7 3 -21 -3 -23 -16
-6 -11 14 -14 15 -9 3 6 -19 -6 -29 -39 -35 -87 -15 -88 -16 -75 -33 10 -13 9
-13 -7 1 -14 13 -16 20 -7 31 9 11 8 14 -3 14 -8 0 -12 -4 -9 -8 2 -4 0 -11
-6 -14 -8 -5 -7 -12 2 -23 12 -15 11 -16 -4 -4 -9 8 -22 11 -27 8 -5 -4 -13
-1 -17 5 -5 8 -3 9 6 4 9 -5 11 -4 6 4 -6 9 -14 8 -32 -4 -14 -9 -28 -13 -33
-10 -5 2 -12 -2 -15 -11 -3 -8 -10 -13 -15 -10 -4 3 -42 -6 -82 -19 -41 -13
-83 -25 -95 -25 -11 0 -25 -5 -32 -12 -10 -10 -66 -17 -154 -17 -16 -1 -28 -6
-28 -13 0 -10 -2 -10 -8 -1 -5 8 -28 11 -65 8 -38 -2 -57 1 -57 8 0 8 -3 8 -8
2 -12 -17 -60 -15 -66 2 -9 21 3 31 14 13 9 -13 10 -13 10 0 0 13 1 13 10 0 9
-13 10 -13 10 1 0 20 89 27 101 7 7 -10 9 -10 9 2 0 11 26 20 103 33 117 21
195 37 217 45 8 2 26 6 39 8 13 2 27 7 30 12 3 5 20 16 36 25 l30 16 -26 1
c-14 0 -29 -4 -35 -9 -11 -12 -215 -44 -269 -42 -148 4 -289 37 -310 71 -3 6
-33 10 -66 10 -38 0 -58 4 -54 10 9 14 -8 13 -23 -2 -9 -9 -12 -8 -12 5 0 9
-7 17 -15 17 -8 0 -15 -4 -15 -10 0 -5 -8 -10 -17 -10 -9 0 -24 -7 -33 -15
-14 -13 -22 -14 -44 -4 -20 9 -32 9 -51 1 -31 -14 -80 -15 -104 -3 -10 6 -28
12 -42 14 -13 2 -31 7 -39 10 -8 3 -55 13 -105 22 -92 17 -182 42 -201 56 -5
5 -41 11 -80 14 -38 3 -96 12 -129 20 -67 15 -236 29 -195 15 l25 -8 -27 -1
c-14 -1 -28 3 -30 8 -1 6 -28 12 -58 15 -30 3 -71 10 -90 16 -42 14 -262 13
-271 -1 -3 -5 -13 -7 -22 -3 -9 3 -17 2 -17 -4 0 -11 -120 -4 -135 8 -16 13
-67 10 -102 -6 -17 -8 -38 -11 -47 -8 -9 3 -16 1 -16 -5 0 -16 -36 -13 -50 4
-20 24 -32 17 -28 -16 3 -29 1 -31 -36 -35 -21 -2 -46 -9 -55 -17 -9 -8 -47
-21 -84 -30 -37 -9 -89 -27 -115 -41 -149 -77 -195 -98 -257 -117 -60 -18
-108 -46 -141 -80 -16 -17 -57 -44 -92 -60 -92 -44 -162 -89 -162 -105 0 -8
-4 -14 -10 -14 -5 0 -10 -6 -10 -14 0 -18 -38 -46 -63 -46 -11 0 -24 13 -32
33 l-14 32 -1 -31 c0 -37 -36 -94 -70 -111 -40 -20 -91 -17 -97 7 -3 10 -14
22 -24 25 -12 4 -19 16 -19 30 0 34 -10 55 -27 55 -8 0 -12 -4 -9 -9 3 -5 -1
-14 -8 -21 -12 -9 -17 -7 -27 12 -8 13 -26 46 -42 73 -40 72 -58 115 -60 143
-1 13 -19 41 -39 62 -25 24 -38 47 -38 64 0 14 -4 26 -10 26 -5 0 -10 5 -10
11 0 6 -10 24 -22 39 -99 125 -106 146 -53 156 19 3 35 11 35 18 0 15 -56 46
-82 46 -37 0 -138 134 -138 183 0 7 -19 44 -41 81 -35 58 -40 75 -36 107 6 43
5 44 -24 29 -14 -8 -19 -8 -17 2 2 7 -7 14 -18 16 -19 3 -26 -7 -48 -66 -34
-89 -53 -106 -107 -99 -22 3 -48 12 -58 21 -10 9 -35 16 -61 16 -35 0 -48 -6
-71 -30 -16 -16 -29 -36 -29 -43 0 -37 -118 -98 -187 -96 -46 1 -150 -14 -156
-22 -2 -2 -11 -16 -20 -31 -29 -46 -90 -70 -177 -70 -108 0 -233 11 -244 22
-15 15 -37 12 -58 -7 -28 -25 -65 -3 -90 55 -11 26 -28 55 -36 65 -9 10 -17
25 -18 33 -3 22 -24 44 -42 44 -9 0 -35 19 -58 41 -42 41 -44 42 -76 29 -18
-8 -60 -32 -92 -53 l-60 -40 -125 41 c-69 22 -152 45 -183 51 -31 6 -79 22
-106 36 -35 18 -58 24 -75 19 -16 -3 -44 1 -70 11 -34 13 -50 14 -65 6 -27
-14 -113 -14 -188 1 -53 10 -65 18 -116 70 -31 32 -61 58 -67 58 -20 0 -11 29
28 91 32 51 54 71 118 111 120 75 384 153 543 161 l75 4 -3 29 c-5 51 -9 55
-38 43 -21 -7 -31 -6 -42 5 -11 10 -21 12 -38 6 -13 -5 -81 -9 -151 -9 -71 0
-141 -5 -157 -11 -16 -6 -35 -9 -42 -6 -7 3 -18 -2 -24 -9 -7 -8 -15 -13 -19
-11 -4 3 -25 0 -47 -6 -261 -68 -462 -78 -579 -29 -54 23 -65 39 -65 101 0
121 98 338 227 500 74 93 84 110 65 110 -4 0 -39 -33 -77 -72z m-695 -772 c0
-9 -30 -14 -35 -6 -4 6 3 10 14 10 12 0 21 -2 21 -4z m40 -66 c0 -9 -47 -20
-55 -12 -3 3 -5 13 -5 23 0 16 4 17 30 8 17 -6 30 -14 30 -19z m3500 -516 c0
-8 -7 -14 -15 -14 -8 0 -15 9 -15 20 0 13 5 18 15 14 8 -4 15 -12 15 -20z
m145 -75 c-4 -13 -2 -19 9 -19 9 0 16 -4 16 -9 0 -5 -13 -9 -30 -9 -27 1 -45
18 -19 18 5 0 9 8 8 18 -2 27 0 34 11 27 6 -4 8 -15 5 -26z m-1222 -152 c4 3
7 1 7 -5 0 -20 -19 -13 -30 11 -10 20 -10 20 3 5 8 -10 17 -15 20 -11z m3849
-47 c62 -10 154 -26 203 -35 50 -9 194 -45 320 -81 176 -50 239 -72 270 -95
22 -16 68 -43 103 -59 34 -16 62 -34 62 -39 0 -14 -109 -44 -139 -38 -15 3
-84 15 -156 27 -172 27 -271 46 -320 59 -22 6 -94 16 -160 21 -123 11 -212 6
-410 -24 -97 -14 -125 -9 -125 24 0 11 -6 20 -13 20 -8 0 -20 11 -27 25 -13
24 -11 28 22 63 19 20 50 63 67 95 l32 57 79 0 c43 0 129 -9 192 -20z m-342
-7 c-1 -5 -7 -19 -15 -33 l-14 -25 -1 26 c0 14 3 29 7 32 9 9 23 9 23 0z
m-3159 -19 c10 -13 10 -17 -2 -25 -30 -19 -57 -3 -45 26 7 20 30 19 47 -1z
m184 -24 c-3 -5 -11 -10 -16 -10 -6 0 -7 5 -4 10 3 6 11 10 16 10 6 0 7 -4 4
-10z m993 -116 c28 -43 24 -66 -6 -36 -30 30 -51 28 -63 -6 -6 -19 -20 -31
-42 -38 -18 -5 -32 -15 -32 -23 0 -8 -20 -29 -45 -46 -42 -30 -70 -35 -70 -13
0 6 7 7 16 4 9 -4 13 -2 8 5 -4 6 -1 15 6 19 11 7 10 12 -3 25 -26 26 -21 54
11 60 15 4 35 10 44 16 10 5 27 9 39 9 28 0 59 18 59 35 0 16 29 35 44 29 6
-3 21 -20 34 -40z m4647 3 c4 5 5 3 1 -4 -7 -12 58 -49 79 -44 6 1 0 -7 -13
-19 -12 -12 -19 -26 -16 -32 4 -7 2 -8 -4 -4 -7 4 -12 2 -12 -4 0 -6 -4 -8
-10 -5 -12 8 -13 26 -1 23 5 -2 9 2 9 7 1 6 -6 9 -14 7 -8 -2 -14 2 -14 8 0
10 15 14 35 10 6 -1 7 2 2 6 -4 4 -16 9 -26 11 -16 2 -18 -4 -17 -38 1 -22 -1
-42 -5 -44 -3 -3 -5 6 -5 18 1 12 -2 28 -7 35 -6 7 -6 12 1 12 13 0 10 32 -5
48 -7 7 -17 10 -23 7 -5 -3 -10 -2 -10 3 0 18 14 22 30 7 9 -8 20 -12 25 -8z
m-284 -54 c13 -16 12 -17 -3 -4 -10 7 -18 15 -18 17 0 8 8 3 21 -13z m244 -10
c14 -31 13 -41 0 -47 -10 -3 -12 0 -8 11 5 12 1 14 -14 9 -27 -8 -39 20 -15
33 24 14 29 13 37 -6z m211 -18 c-11 -8 -24 -15 -30 -15 -5 0 -1 7 10 15 10 8
24 14 29 14 6 0 1 -6 -9 -14z m-1136 -60 c0 -5 -5 -3 -10 5 -5 8 -10 20 -10
25 0 6 5 3 10 -5 5 -8 10 -19 10 -25z m1194 13 c-3 -5 -12 -4 -20 3 -19 16
-18 18 6 12 11 -3 17 -9 14 -15z m49 7 c-3 -9 -8 -14 -10 -11 -3 3 -2 9 2 15
9 16 15 13 8 -4z m-263 -23 c0 -13 -12 -22 -22 -16 -10 6 -1 24 13 24 5 0 9
-4 9 -8z m27 -17 c0 -8 -4 -12 -9 -9 -5 3 -6 10 -3 15 9 13 12 11 12 -6z m201
6 c2 -1 0 -6 -3 -11 -5 -8 -11 -8 -19 -1 -7 6 -17 7 -21 3 -5 -4 -5 -2 -2 5 6
9 18 10 45 4z m-5011 -17 c-3 -3 -12 -4 -19 -1 -8 3 -5 6 6 6 11 1 17 -2 13
-5z m4755 -40 c21 1 36 0 33 -2 -3 -3 1 -12 7 -21 10 -13 10 -14 -2 -3 -8 6
-18 12 -23 12 -4 0 -5 -6 -1 -12 4 -7 -1 -6 -12 4 -15 13 -21 14 -31 3 -6 -7
-9 -16 -6 -19 4 -3 1 -6 -6 -6 -7 0 -10 -4 -6 -9 3 -5 0 -13 -6 -17 -8 -4 -9
-3 -5 4 4 7 2 12 -4 12 -6 0 -9 4 -6 9 3 5 -1 14 -9 21 -13 11 -13 14 2 25 10
8 22 10 28 5 5 -4 27 -7 47 -6z m242 -6 c-3 -5 -10 -6 -15 -3 -5 4 -9 1 -9 -4
0 -6 9 -11 20 -11 20 0 26 -11 13 -23 -3 -4 -13 -1 -22 6 -14 10 -14 10 -3 -5
11 -14 18 -15 38 -6 18 9 21 14 12 20 -10 7 -9 9 2 5 8 -2 17 -12 18 -22 3
-11 0 -15 -7 -10 -7 4 -18 1 -26 -5 -12 -10 -18 -10 -30 0 -8 6 -19 9 -24 5
-7 -4 -8 1 -4 11 5 13 3 15 -8 9 -12 -8 -12 -6 -1 8 8 9 11 20 9 25 -3 4 5 8
18 8 13 0 21 -4 19 -8z m-378 -10 c3 -4 -1 -5 -10 -4 -8 1 -18 5 -22 8 -3 4 1
5 10 4 8 -1 18 -5 22 -8z m282 -23 c3 -3 -4 -5 -16 -5 -11 0 -23 4 -27 9 -6
10 33 6 43 -4z m-152 -51 c-11 -8 -25 -14 -30 -13 -6 0 -1 5 12 11 15 8 21 17
17 27 -5 13 -4 14 7 3 11 -11 10 -16 -6 -28z m138 28 c3 -5 -1 -9 -9 -9 -8 0
-12 4 -9 9 3 4 7 8 9 8 2 0 6 -4 9 -8z m183 -40 c-1 -19 -32 -27 -42 -12 -7
11 24 42 35 35 5 -3 8 -13 7 -23z m-47 8 c0 -10 -26 -20 -34 -13 -11 12 -6 19
14 20 11 1 20 -2 20 -7z m-136 -12 c-3 -4 -14 -6 -24 -5 -32 5 -32 13 0 13 16
0 27 -3 24 -8z m-79 -48 c2 -25 2 -25 -20 0 -18 20 -18 21 0 14 14 -6 16 -4
10 7 -4 8 -4 11 0 6 5 -4 9 -16 10 -27z m192 24 c-3 -3 -12 -4 -19 -1 -8 3 -5
6 6 6 11 1 17 -2 13 -5z m47 -8 c21 -10 23 -15 11 -19 -21 -9 -19 -28 3 -21
14 5 15 4 2 -5 -8 -6 -15 -21 -15 -33 0 -18 -6 -22 -23 -21 -12 2 -22 -1 -22
-6 0 -12 30 -22 42 -14 7 3 8 1 4 -6 -4 -6 -16 -9 -26 -6 -10 3 -21 1 -25 -5
-3 -6 -11 -8 -16 -4 -14 8 0 26 14 18 7 -4 9 -3 4 1 -13 15 -48 13 -43 -1 3
-7 0 -16 -6 -20 -6 -4 -8 -3 -5 3 7 12 -16 36 -25 27 -3 -3 -9 -1 -12 4 -3 6
9 9 29 7 22 -1 34 2 32 9 -2 6 -16 10 -30 10 -15 -1 -24 2 -22 7 3 4 23 6 45
4 22 -2 40 1 40 6 0 5 -4 9 -10 9 -5 0 -10 5 -10 12 0 6 10 2 23 -10 36 -34
44 -26 11 10 -16 18 -19 24 -6 14 19 -17 33 -10 15 8 -7 7 -14 36 -8 36 1 0
15 -6 29 -14z m-159 -22 c0 -10 -7 -30 -15 -44 -8 -13 -13 -26 -12 -28 2 -2 0
-7 -4 -10 -4 -4 -4 -2 -1 4 3 6 1 21 -6 35 -10 21 -13 37 -8 60 0 3 11 5 23 4
15 -1 23 -8 23 -21z m-4925 1 c-7 -8 -19 -15 -26 -15 -8 0 -11 6 -8 15 4 8 15
15 26 15 17 0 18 -3 8 -15z m4804 7 c3 -5 -1 -9 -9 -9 -8 0 -12 4 -9 9 3 4 7
8 9 8 2 0 6 -4 9 -8z m163 -8 c-3 -3 -12 -4 -19 -1 -8 3 -5 6 6 6 11 1 17 -2
13 -5z m-164 -39 c-7 -21 -12 -19 -10 4 0 11 5 18 9 15 4 -3 5 -11 1 -19z m33
-1 c1 -9 0 -13 -4 -10 -3 4 -7 14 -8 22 -1 9 0 13 4 10 3 -4 7 -14 8 -22z
m134 16 c0 -5 -8 -10 -17 -10 -15 0 -16 2 -3 10 19 12 20 12 20 0z m-4925 -10
c-3 -5 -1 -10 6 -10 7 0 10 -2 7 -5 -8 -9 -38 6 -32 16 3 5 10 9 15 9 6 0 7
-4 4 -10z m4889 -31 c-3 -5 -10 -7 -15 -3 -5 3 -7 10 -3 15 3 5 10 7 15 3 5
-3 7 -10 3 -15z m-129 -28 c3 -5 2 -12 -3 -15 -5 -3 -9 1 -9 9 0 17 3 19 12 6z
m160 -14 c4 5 5 2 1 -5 -4 -7 -12 -10 -17 -7 -15 10 -40 -20 -27 -33 6 -6 7
-15 4 -21 -9 -14 -36 -2 -30 14 3 7 -2 25 -11 38 -16 25 -15 26 7 29 13 2 32
-2 44 -9 11 -7 24 -10 29 -6z m-111 -3 c5 -13 2 -15 -14 -11 -14 3 -20 1 -17
-6 3 -7 10 -11 16 -9 7 1 10 -2 6 -8 -3 -6 -11 -7 -17 -4 -8 5 -9 1 -4 -11 5
-14 4 -16 -7 -7 -8 7 -16 10 -19 7 -2 -3 -5 1 -5 9 0 8 6 12 15 8 11 -4 13 -1
7 8 -5 8 -1 18 10 27 23 16 22 16 29 -3z m183 -41 c0 -7 -4 -13 -9 -13 -4 0
-8 4 -8 9 0 9 -7 9 -45 1 -17 -4 -26 0 -22 8 9 13 84 9 84 -5z m-223 -31 c3
-5 -1 -9 -9 -9 -8 0 -12 4 -9 9 3 4 7 8 9 8 2 0 6 -4 9 -8z m-4012 -1964 c-7
-7 -12 -8 -12 -2 0 14 12 26 19 19 2 -3 -1 -11 -7 -17z"/>
<path d="M8650 3856 c0 -2 8 -10 18 -17 15 -13 16 -12 3 4 -13 16 -21 21 -21
13z"/>
<path d="M8934 3483 c3 -4 18 -8 32 -9 14 -2 24 0 20 3 -3 3 -17 7 -32 9 -14
1 -23 0 -20 -3z"/>
<path d="M8810 3530 c0 -6 -6 -8 -12 -4 -10 6 -10 4 0 -7 9 -9 15 -10 23 -2 8
8 8 13 0 17 -6 4 -11 2 -11 -4z"/>
<path d="M5847 5360 c9 -127 3 -210 -19 -237 -5 -6 -26 -21 -47 -32 -38 -19
-39 -19 -70 0 -17 10 -31 23 -31 27 0 5 -11 14 -24 22 -14 7 -39 33 -56 57
-18 25 -52 66 -76 91 -68 74 -104 116 -104 125 0 4 -4 7 -10 7 -18 0 -10 -25
25 -77 19 -28 49 -80 66 -115 38 -75 96 -161 138 -204 46 -49 130 -182 137
-219 9 -52 -19 -103 -64 -111 -21 -4 -43 -2 -54 5 -12 8 -31 8 -59 2 -23 -5
-47 -8 -53 -6 -51 15 -64 15 -59 -4 15 -57 114 -79 203 -46 97 36 126 39 190
22 86 -24 132 -22 164 8 29 27 32 38 13 53 -8 7 -26 8 -52 2 -33 -8 -42 -6
-52 7 -7 9 -13 21 -13 25 0 16 43 93 58 104 23 16 5 34 -31 31 -26 -2 -33 2
-35 21 -2 12 -9 22 -15 22 -7 0 -18 4 -26 9 -11 7 -10 13 4 35 10 14 14 26 11
26 -4 0 0 11 9 24 14 21 14 26 0 52 -8 16 -15 45 -15 64 -1 64 -27 225 -44
260 -15 34 -16 34 -9 -50z"/>
<path d="M6193 5378 c-22 -11 -33 -48 -14 -48 15 0 41 30 41 46 0 8 -1 14 -2
13 -2 0 -13 -5 -25 -11z"/>
<path d="M5032 5220 c0 -23 6 -34 29 -47 31 -18 40 -53 13 -53 -11 0 -13 -6
-9 -19 3 -11 -1 -25 -10 -34 -17 -17 -20 -47 -5 -47 6 0 10 -6 10 -14 0 -8 9
-18 20 -21 11 -3 20 -11 20 -16 0 -5 6 -9 14 -9 7 0 19 -7 26 -15 7 -8 24 -15
39 -15 48 -1 95 -32 101 -66 3 -17 22 -51 43 -75 35 -42 38 -43 43 -21 7 25
24 30 24 7 0 -9 11 -27 25 -40 20 -21 32 -24 67 -21 29 2 44 9 49 22 11 28 10
46 -2 39 -6 -4 -17 3 -26 14 -16 23 -60 26 -55 3 1 -6 -3 -11 -10 -10 -18 4
-48 36 -48 52 0 7 -7 19 -15 26 -8 7 -15 19 -15 27 0 8 -46 61 -101 116 -56
56 -126 132 -155 169 -66 82 -71 85 -72 48z"/>
<path d="M6207 5166 c-4 -10 -7 -31 -7 -47 0 -68 -55 -139 -109 -139 -14 0
-33 -5 -41 -10 -12 -8 -11 -10 6 -10 24 0 65 -52 73 -94 7 -34 27 -46 34 -19
3 10 5 3 6 -14 2 -47 21 -41 21 7 0 31 4 40 18 41 26 1 53 7 59 13 3 3 0 20
-7 37 -13 30 -12 33 12 54 25 21 25 23 7 36 -11 8 -19 26 -19 44 -1 16 -11 50
-24 74 -18 34 -24 40 -29 27z"/>
<path d="M130 5130 c0 -5 5 -10 11 -10 5 0 7 5 4 10 -3 6 -8 10 -11 10 -2 0
-4 -4 -4 -10z"/>
<path d="M213 5003 c25 -39 47 -54 47 -31 0 12 -55 68 -66 68 -2 0 6 -17 19
-37z"/>
<path d="M1857 4946 c-3 -8 3 -22 14 -32 23 -20 24 -16 5 20 -10 20 -15 23
-19 12z"/>
<path d="M7700 4886 c0 -2 7 -7 16 -10 8 -3 12 -2 9 4 -6 10 -25 14 -25 6z"/>
<path d="M8755 4002 c2 -3 0 -13 -5 -22 -7 -13 -5 -22 7 -31 14 -12 16 -12 8
0 -6 11 -4 13 9 8 9 -4 15 -3 11 2 -3 5 2 17 11 25 8 9 12 16 7 17 -4 0 -18 2
-30 3 -13 2 -21 1 -18 -2z m29 -17 c-4 -8 -11 -12 -16 -9 -6 4 -5 10 3 15 19
12 19 11 13 -6z"/>
<path d="M8720 3946 c0 -2 12 -12 28 -21 l27 -18 -19 21 c-17 20 -36 29 -36
18z"/>
<path d="M4541 3674 c0 -11 3 -14 6 -6 3 7 2 16 -1 19 -3 4 -6 -2 -5 -13z"/>
</g>
</svg>
