<svg xmlns="http://www.w3.org/2000/svg" width="100" height="100" viewBox="0 0 100 100">
<g id="Groupe_29" data-name="Groupe 29" transform="translate(-1800 -2863)">
    <g id="Partager" transform="translate(1137 2510)">
    <path id="Tracé_3" data-name="Tracé 3" d="M50,0A50,50,0,1,1,0,50,50,50,0,0,1,50,0Z" transform="translate(663 353)" fill="#1e2022"/>
    </g>
    <path id="angle-up-solid" d="M53.746,129.508a3.61,3.61,0,0,1,5.833,0l20.6,25.3a5.918,5.918,0,0,1,0,7.163,3.61,3.61,0,0,1-5.833,0L56.656,140.245,38.965,161.957a3.61,3.61,0,0,1-5.833,0,5.917,5.917,0,0,1,0-7.163l20.6-25.3Z" transform="translate(1793.344 2767.26)" fill="#f0f5f9"/>
</g>
</svg>
