<svg id="Facebook" xmlns="http://www.w3.org/2000/svg" width="100" height="100" viewBox="0 0 100 100">
    <path id="Rectangle_5" data-name="Rectangle 5" d="M21,0H79a21,21,0,0,1,21,21V79a21,21,0,0,1-21,21H21A21,21,0,0,1,0,79V21A21,21,0,0,1,21,0Z" fill="#f0f5f9" />
    <path id="facebook-2" data-name="facebook" d="M78,43.216A35.011,35.011,0,1,0,37.53,78.006V53.4H28.64V43.216H37.53V35.457c0-8.826,5.222-13.7,13.219-13.7a53.539,53.539,0,0,1,7.835.687V31.1H54.17c-4.346,0-5.7,2.715-5.7,5.5v6.611h9.707L56.621,53.4h-8.15v24.61A35.164,35.164,0,0,0,78,43.216Z" transform="translate(7.002 6.994)" fill="#1e2022" />
</svg>
