<svg id="Instagram" xmlns="http://www.w3.org/2000/svg" width="100" height="100" viewBox="0 0 100 100">
  <rect id="Rectangle_3" data-name="Rectangle 3" width="100" height="100" rx="21" fill="#f0f5f9"/>
  <path id="instagram-2" data-name="instagram" d="M34.933,48.878a17.917,17.917,0,1,0,12.7,5.249,17.948,17.948,0,0,0-12.7-5.249Zm0,29.615A11.668,11.668,0,1,1,46.6,66.825,11.668,11.668,0,0,1,34.933,78.493ZM57.8,48.144a4.176,4.176,0,1,1-1.223-2.963A4.185,4.185,0,0,1,57.8,48.144Zm11.884,4.249c-.265-5.608-1.546-10.575-5.653-14.667-4.091-4.092-9.057-5.373-14.664-5.654-5.778-.328-23.1-.328-28.875,0C14.9,32.337,9.931,33.617,5.824,37.71S.452,46.769.171,52.377c-.328,5.779-.328,23.1,0,28.881.265,5.607,1.546,10.575,5.653,14.667s9.057,5.373,14.664,5.654c5.778.328,23.1.328,28.875,0,5.606-.266,10.572-1.546,14.664-5.654,4.091-4.092,5.372-9.059,5.653-14.667.328-5.779.328-23.086,0-28.865Zm-7.47,35.066a11.812,11.812,0,0,1-6.653,6.654c-4.607,1.828-15.538,1.406-20.629,1.406s-16.038.406-20.629-1.406A11.812,11.812,0,0,1,7.65,87.459c-1.826-4.608-1.4-15.542-1.4-20.634S5.84,50.783,7.651,46.191A11.812,11.812,0,0,1,14.3,39.537c4.607-1.828,15.538-1.406,20.629-1.406s16.038-.406,20.629,1.406a11.812,11.812,0,0,1,6.653,6.654C64.042,50.8,63.62,61.733,63.62,66.825S64.042,82.867,62.214,87.459Z" transform="translate(15.074 -16.825)" fill="#1e2022"/>
</svg>
