<svg id="Linkedin" xmlns="http://www.w3.org/2000/svg" width="100" height="100" viewBox="0 0 100 100">
    <g id="Rectangle_1" data-name="Rectangle 1" fill="#1e2022">
        <path d="M 79 99 L 21 99 C 18.29957389831543 99 15.6804666519165 98.47134399414062 13.21541309356689 97.42870330810547 C 10.83394622802734 96.42144012451172 8.69495964050293 94.97922515869141 6.857866764068604 93.14213562011719 C 5.020773410797119 91.30503845214844 3.57856011390686 89.16605377197266 2.571293354034424 86.78458404541016 C 1.528653383255005 84.31953430175781 1 81.70042419433594 1 79 L 1 21 C 1 18.29957389831543 1.528653383255005 15.6804666519165 2.571293354034424 13.21541309356689 C 3.57856011390686 10.83394622802734 5.020773410797119 8.69495964050293 6.857866764068604 6.857866764068604 C 8.69495964050293 5.020773410797119 10.83394622802734 3.57856011390686 13.21541309356689 2.571293354034424 C 15.6804666519165 1.528653383255005 18.29957389831543 1 21 1 L 79 1 C 81.70042419433594 1 84.31953430175781 1.528653383255005 86.78458404541016 2.571293354034424 C 89.16605377197266 3.57856011390686 91.30503845214844 5.020773410797119 93.14213562011719 6.857866764068604 C 94.97922515869141 8.69495964050293 96.42144012451172 10.83394622802734 97.42870330810547 13.21541309356689 C 98.47134399414062 15.6804666519165 99 18.29957389831543 99 21 L 99 79 C 99 81.70042419433594 98.47134399414062 84.31953430175781 97.42870330810547 86.78458404541016 C 96.42144012451172 89.16605377197266 94.97922515869141 91.30503845214844 93.14213562011719 93.14213562011719 C 91.30503845214844 94.97922515869141 89.16605377197266 96.42144012451172 86.78458404541016 97.42870330810547 C 84.31953430175781 98.47134399414062 81.70042419433594 99 79 99 Z" stroke="none" />
        <path d="M 21 2 C 15.92491149902344 2 11.15360260009766 3.976341247558594 7.564971923828125 7.564971923828125 C 3.976341247558594 11.15360260009766 2 15.92491149902344 2 21 L 2 79 C 2 84.07508850097656 3.976341247558594 88.84639739990234 7.564971923828125 92.43502807617188 C 11.15360260009766 96.02365875244141 15.92491149902344 98 21 98 L 79 98 C 84.07508850097656 98 88.84639739990234 96.02365875244141 92.43502807617188 92.43502807617188 C 96.02365875244141 88.84639739990234 98 84.07508850097656 98 79 L 98 21 C 98 15.92491149902344 96.02365875244141 11.15360260009766 92.43502807617188 7.564971923828125 C 88.84639739990234 3.976341247558594 84.07508850097656 2 79 2 L 21 2 M 21 0 L 79 0 C 90.59796905517578 0 100 9.402030944824219 100 21 L 100 79 C 100 90.59796905517578 90.59796905517578 100 79 100 L 21 100 C 9.402030944824219 100 0 90.59796905517578 0 79 L 0 21 C 0 9.402030944824219 9.402030944824219 0 21 0 Z" stroke="none" fill="#1e2022" />
    </g>
    <path id="linkedin-2" data-name="linkedin" d="M65,32H4.984A5.022,5.022,0,0,0,0,37.047V96.953A5.022,5.022,0,0,0,4.984,102H65a5.035,5.035,0,0,0,5-5.047V37.047A5.035,5.035,0,0,0,65,32ZM21.156,92H10.781V58.594H21.172V92ZM15.969,54.031a6.016,6.016,0,1,1,6.016-6.016,6.016,6.016,0,0,1-6.016,6.016ZM60.047,92H49.672V75.75c0-3.875-.078-8.859-5.391-8.859-5.406,0-6.234,4.219-6.234,8.578V92H27.672V58.594h9.953v4.563h.141a10.928,10.928,0,0,1,9.828-5.391c10.5,0,12.453,6.922,12.453,15.922Z" transform="translate(15 -17)" fill="#f0f5f9" stroke="#f0f5f9" stroke-width="1" />
</svg>
