<svg id="twitter" xmlns="http://www.w3.org/2000/svg" width="100" height="100" viewBox="0 0 100 100">
  <rect id="Rectangle_4" data-name="Rectangle 4" width="100" height="100" rx="21" fill="#f0f5f9"/>
  <path id="twitter-2" data-name="twitter" d="M68.188,63.465c.048.675.048,1.35.048,2.025,0,20.591-15.673,44.317-44.317,44.317A44.017,44.017,0,0,1,0,102.816a32.221,32.221,0,0,0,3.761.193A31.194,31.194,0,0,0,23.1,96.354a15.6,15.6,0,0,1-14.564-10.8,19.642,19.642,0,0,0,2.942.241,16.474,16.474,0,0,0,4.1-.53A15.578,15.578,0,0,1,3.086,69.975v-.193a15.687,15.687,0,0,0,7.041,1.977A15.6,15.6,0,0,1,5.3,50.927a44.275,44.275,0,0,0,32.117,16.3,17.584,17.584,0,0,1-.386-3.568A15.591,15.591,0,0,1,63.992,53a30.667,30.667,0,0,0,9.886-3.761,15.534,15.534,0,0,1-6.848,8.584A31.226,31.226,0,0,0,76,55.412,33.482,33.482,0,0,1,68.188,63.465Z" transform="translate(12 -28.942)" fill="#1e2022"/>
</svg>
