<svg xmlns="http://www.w3.org/2000/svg" width="100" height="100" viewBox="0 0 100 100">
  <g id="Partager" transform="translate(-600 -344)">
    <g id="Tracé_3" data-name="Tracé 3" transform="translate(600 344)">
      <path id="Tracé_1" data-name="Tracé 1" d="M50,0A50,50,0,1,1,0,50,50,50,0,0,1,50,0Z" fill="#f0f5f9"/>
      <path id="icons8-accueil-144" d="M61.833,69h-15a4.166,4.166,0,0,1-4.167-4.168v-15A3.332,3.332,0,0,0,39.333,46.5H32.667a3.332,3.332,0,0,0-3.333,3.333v15A4.166,4.166,0,0,1,25.166,69h-15A4.166,4.166,0,0,1,6,64.832V33.022A12.5,12.5,0,0,1,10.767,23.2L34.452,4.535a2.506,2.506,0,0,1,3.1,0L61.237,23.2A12.5,12.5,0,0,1,66,33.018V64.833A4.166,4.166,0,0,1,61.832,69Z" transform="translate(14 11)" fill="#1e2022"/>
    </g>
  </g>
</svg>
